<svg viewBox="0 0 3000 2121" xmlns="http://www.w3.org/2000/svg" xml:space="preserve" style="fill-rule:evenodd;clip-rule:evenodd;stroke-linejoin:round;stroke-miterlimit:2">
    <style>
        path { fill: black; }
        @media (prefers-color-scheme: dark) {
            path { fill: white; }
        }
    </style>
    <path d="m1164.996 1900.686-74.166 159.04c-17.738 38.042-55.516 60.4-94.933 60.353-39.416.047-77.194-22.311-94.948-60.352L9.802 148.707C-14.58 96.426 8.074 34.189 60.357 9.81c52.28-24.377 114.52-1.726 138.9 50.555l796.64 1708.336 17.785-38.118a1152.444 1152.444 0 0 0 151.314 170.103Zm1834.92-836.533c.046-1.298.077-2.611.077-3.925 0-57.68-46.833-104.512-104.528-104.512h-1101.26c-57.696 0-104.529 46.833-104.529 104.512 0 57.695 46.833 104.528 104.528 104.528h992.654c-51.608 421.852-411.129 748.6-846.963 748.6-470.972 0-853.345-382.357-853.345-853.329 0-470.96 382.373-853.324 853.345-853.324 195.366 0 383.84 67.002 534.676 188.279 41.008 33.109 100.372 29.955 137.64-7.312.016.017.016.016.016.014a103.59 103.59 0 0 0 30.207-78.75 103.6 103.6 0 0 0-38.38-75.108C2416.674 83.215 2182.572-.003 1939.893-.003c-585.063 0-1060.036 474.985-1060.036 1060.03 0 585.048 474.973 1060.037 1060.037 1060.037 584.09 0 1057.842-472.408 1060.02-1055.911Zm-539.436 641.074c129.327-104.466 226.562-246.973 274.724-410.494-79.636 132.325-224.662 220.845-390.377 220.845-178.602 0-333.192-102.828-407.776-252.536-16.81-33.622-51.159-54.837-88.736-54.837v-.015c-34.812 0-67.136 18.047-85.384 47.683-18.264 29.62-19.855 66.61-4.218 97.698 107.695 214.542 329.7 361.839 586.114 361.839 39.478 0 78.137-3.492 115.653-10.183Zm327.86-924.837a57.638 57.638 0 0 0 54.621-8.298c15.621-11.866 24.12-30.871 22.575-50.433-6.073-74.024-54.095-141.42-128.463-168.487-74.367-27.066-154.482-6.309-206.645 46.563a57.54 57.54 0 0 0-15.112 53.056 57.527 57.527 0 0 0 36.45 41.396c.155.155.34.216.525.294 21.169 7.694 44.87 2.38 60.709-13.644 21.322-21.632 54.095-30.082 84.518-19.005 30.424 11.063 50.093 38.613 52.612 68.882 1.838 22.404 16.564 41.703 37.686 49.398.154.139.34.216.525.278Zm-884.432-.108c-18.541 6.736-39.23 3.584-54.898-8.375a57.837 57.837 0 0 1-22.574-50.742c6.242-73.833 54.218-140.987 128.415-167.993 74.198-27.004 154.127-6.401 206.306 46.206a57.788 57.788 0 0 1 15.297 53.291c-4.311 19.206-18.124 34.905-36.62 41.642 0 .092-.03.108-.077.123-21.215 7.726-44.994 2.395-60.878-13.643-21.338-21.601-54.08-30.027-84.472-18.959-30.408 11.063-50.062 38.566-52.612 68.805a57.765 57.765 0 0 1-37.825 49.506c0 .108-.03.123-.062.139Z"/>
</svg>